<svg xmlns="http://www.w3.org/2000/svg" width="45.123" height="23.636" viewBox="0 0 45.123 23.636">
  <g id="Group_2" data-name="Group 2" transform="translate(-0.321 -0.022)">
    <g id="noun_Gym_1617325" transform="translate(0.058)">
      <g id="Group" transform="translate(0.237)">
        <path id="Shape" d="M12.284,20.438V16.047H.911a.911.911,0,0,1,0-1.822H13.195a.911.911,0,0,1,.911.911v5.3a1.377,1.377,0,0,0,2.754,0V3.2a1.377,1.377,0,0,0-2.754,0V8.5a.911.911,0,0,1-1.822,0V3.2a3.2,3.2,0,0,1,6.388-.231,3.2,3.2,0,0,1,4.577,2.68,3.2,3.2,0,0,1,4.582,2.884v6.575a3.2,3.2,0,0,1-3.2,3.2,3.168,3.168,0,0,1-1.383-.315,3.2,3.2,0,0,1-4.577,2.681,3.2,3.2,0,0,1-6.388-.231Z" transform="translate(17.318 0.022)" fill="#fff"/>
        <path id="Shape-2" data-name="Shape" d="M9.16,20.669a3.2,3.2,0,0,1-4.578-2.681A3.2,3.2,0,0,1,0,15.106V8.531A3.2,3.2,0,0,1,4.582,5.648,3.2,3.2,0,0,1,9.16,2.967a3.2,3.2,0,0,1,6.387.231V7.59H26.921a.911.911,0,0,1,0,1.822H14.637a.911.911,0,0,1-.911-.911V3.2a1.377,1.377,0,0,0-2.754,0v17.24a1.377,1.377,0,0,0,2.754,0v-5.3a.911.911,0,0,1,1.822,0v5.3a3.2,3.2,0,0,1-6.387.231Z" transform="translate(0.026 0.022)" fill="#fff"/>
        <path id="Path" d="M0,.911v.305a.911.911,0,0,0,1.822,0V.911A.911.911,0,0,0,0,.911Z" transform="translate(13.749 10.983)" fill="#fff"/>
        <path id="Path-2" data-name="Path" d="M1.822,1.216V.911A.911.911,0,0,0,0,.911v.305a.911.911,0,0,0,1.822,0Z" transform="translate(29.602 10.576)" fill="#fff"/>
      </g>
    </g>
  </g>
</svg>
