<svg xmlns="http://www.w3.org/2000/svg" width="149" height="103.649" viewBox="0 0 149 103.649">
  <g id="Group_2" data-name="Group 2" transform="translate(0 -0.049)">
    <text id="GYMPOINT" transform="translate(0 96.698)" fill="#ee4d64" font-size="29.861" font-family="SegoeUI, Segoe UI"><tspan x="0" y="0">GYMPOINT</tspan></text>
    <g id="noun_Gym_1617325" transform="translate(26.128)">
      <g id="Group" transform="translate(0.524)">
        <path id="Shape" d="M27.128,45.133v-9.7H2.012a2.011,2.011,0,1,1,0-4.022H29.139a2.011,2.011,0,0,1,2.011,2.011V45.133a3.04,3.04,0,1,0,6.08,0V7.063a3.04,3.04,0,0,0-6.08,0V18.771a2.012,2.012,0,0,1-4.023,0V7.063a7.062,7.062,0,0,1,14.106-.511,7.061,7.061,0,0,1,10.109,5.92,7.063,7.063,0,0,1,10.12,6.367V33.358a7.061,7.061,0,0,1-10.12,6.367,7.061,7.061,0,0,1-10.109,5.92,7.062,7.062,0,0,1-14.106-.511Z" transform="translate(38.243 0.049)" fill="#ee4d64"/>
        <path id="Shape-2" data-name="Shape" d="M20.228,45.644a7.062,7.062,0,0,1-10.11-5.92A7.062,7.062,0,0,1,0,33.358V18.84a7.062,7.062,0,0,1,10.119-6.368,7.062,7.062,0,0,1,10.11-5.92,7.062,7.062,0,0,1,14.106.511v9.7H59.45a2.012,2.012,0,1,1,0,4.023H32.323a2.012,2.012,0,0,1-2.012-2.011V7.063a3.041,3.041,0,0,0-6.081,0v38.07a3.041,3.041,0,1,0,6.081,0V33.425a2.012,2.012,0,0,1,4.023,0V45.133a7.062,7.062,0,0,1-14.106.511Z" transform="translate(0.057 0.049)" fill="#ee4d64"/>
        <path id="Path" d="M0,2.011v.674a2.011,2.011,0,0,0,4.023,0V2.011A2.011,2.011,0,0,0,0,2.011Z" transform="translate(30.363 24.253)" fill="#ee4d64"/>
        <path id="Path-2" data-name="Path" d="M4.023,2.686V2.011A2.011,2.011,0,0,0,0,2.011v.674a2.011,2.011,0,0,0,4.023,0Z" transform="translate(65.371 23.355)" fill="#ee4d64"/>
      </g>
    </g>
  </g>
</svg>
